# xmcd CD database file
#
# Track frame offsets:
#	182
#	16510
#	27937
#	45325
#	59090
#	74455
#	85287
#	99302
#	113572
#	126555
#	139870
#	151900
#	174647
#
# Disc length: 2561 seconds
#
# Revision: 2
# Processed by: cddbd v1.4b41PL1 Copyright (c) Steve Scherf et al.
# Submitted via: Feurio! 1.52 - http://www.feurio.com
#
DISCID=a809ff0d
DTITLE=Various Artist - The Blues II
DYEAR=1900
DGENRE=
TTITLE0=Muddy Waters - The Blues Had A Baby And They Called It Rock And Roll
TTITLE1=Memphis Minnie - Killer Diller Blues
TTITLE2=Johnny Winter  - Rock Me Baby
TTITLE3=Big Bill Broonzy - Key To The Highway
TTITLE4=Jimmy Vaughan and The Fabulous Thunderbirds - Tuff Enuff
TTITLE5=Stevie Ray Vaughan - Love Struck Baby
TTITLE6=Blind Boy Fuller - Rag Mama Rag
TTITLE7=Keb' Mo' - Dirty Lay Down And Bad
TTITLE8=Bessie Smith - Preachin' The Blues
TTITLE9=Aretha Franklin  - Trouble In Mind
TTITLE10=Big Joe Williams - Don't You Leave Me Here
TTITLE11=Johnny Winter - New York, New York
TTITLE12=Muddy Waters - I'm A King Bee
EXTD=Compiled By Henri Renaud
EXTT0=
EXTT1=
EXTT2=
EXTT3=
EXTT4=
EXTT5=
EXTT6=
EXTT7=
EXTT8=
EXTT9=
EXTT10=
EXTT11=
EXTT12=
PLAYORDER=
